<?xml version="1.0" encoding="iso-8859-1"?>
<!-- Uploaded to: SVG Repo, www.svgrepo.com, Generator: SVG Repo Mixer Tools -->
<svg height="800px" width="800px" version="1.1" id="Layer_1" xmlns="http://www.w3.org/2000/svg" xmlns:xlink="http://www.w3.org/1999/xlink" 
	 viewBox="0 0 507.958 507.958" xml:space="preserve">
<g transform="translate(1 1)">
	<polygon style="fill:#E2E3E5;" points="214.579,459.575 448.123,459.575 448.123,46.382 214.579,46.382 	"/>
	<polygon style="fill:#FFFFFF;" points="7.982,459.575 241.526,459.575 241.526,46.382 7.982,46.382 	"/>
	<polygon style="fill:#CCCCCC;" points="187.632,459.575 421.175,459.575 421.175,46.382 187.632,46.382 	"/>
	<polygon style="fill:#E2E3E5;" points="34.93,459.575 394.228,459.575 394.228,46.382 34.93,46.382 	"/>
	<path style="fill:#E0E0E0;" d="M260.389,127.225l-45.811-45.811v152.702h152.702l-45.811-45.811c0,0,51.2-84.435,175.158-52.996
		c0,0-47.607-70.961-141.923-61.979C354.705,74.228,309.793,76.025,260.389,127.225"/>
	<path style="fill:#F0F0F0;" d="M400.516,135.309c0-4.491,0-8.084-0.898-12.575c-2.695-15.27-3.593-31.439-1.796-46.709
		c-12.575-2.695-26.947-3.593-43.116-1.796c0,0-44.912,1.796-94.316,53.895l-45.811-46.709v152.702h152.702l-45.811-45.811
		C321.47,189.204,345.723,149.681,400.516,135.309"/>
	<g>
		<path style="fill:#B6B6B6;" d="M368.179,243.996L368.179,243.996H215.477c-4.491,0-8.982-3.593-8.982-8.982V82.312
			c0-3.593,1.797-7.186,5.389-8.084c3.593-1.796,7.186-0.898,9.881,1.796l39.523,39.523c48.505-47.607,91.621-49.404,94.316-49.404
			c97.909-8.982,148.211,62.877,150.007,66.47c1.797,2.695,1.797,7.186,0,9.881c-1.796,2.695-6.288,4.491-9.881,3.593
			c-97.011-25.151-147.312,25.151-161.684,43.116l40.421,40.421c2.695,2.695,3.593,6.288,1.796,9.881
			C374.467,241.302,371.772,243.996,368.179,243.996z M223.561,225.133h122.161l-30.54-30.54c-2.695-2.695-3.593-7.186-0.898-10.779
			c0.898-0.898,48.505-77.249,158.091-61.979c-20.66-18.863-59.284-44.912-116.772-39.523c-0.898,0-43.116,2.695-88.028,50.302
			c-1.796,1.796-3.593,2.695-6.288,2.695c-2.695,0-4.491-0.898-6.288-2.695l-31.439-29.642V225.133z"/>
		<path style="fill:#B6B6B6;" d="M421.175,468.558H7.982c-5.389,0-8.982-3.593-8.982-8.982V46.382c0-5.389,3.593-8.982,8.982-8.982
			h413.193c5.389,0,8.982,3.593,8.982,8.982v35.032c0,2.695-1.797,5.389-3.593,7.186c-2.695,1.796-5.389,2.695-8.084,1.796
			c-19.761-6.288-41.319-8.982-62.877-7.186c-0.898,0-43.116,2.695-88.028,50.302c-1.796,1.796-3.593,2.695-6.288,2.695
			c-2.695,0-4.491-0.898-6.288-2.695l-31.439-30.54v122.161h122.161l-30.54-30.54c-2.695-2.695-3.593-7.186-0.898-10.779
			c0.898-1.796,33.235-52.996,105.993-61.979c2.695,0,5.389,0,7.186,1.796c1.797,1.796,2.695,4.491,2.695,7.186v328.758
			C430.158,464.965,426.565,468.558,421.175,468.558z M16.965,450.593h395.228V141.596c-44.014,8.982-69.165,35.032-78.147,46.709
			l40.421,40.421c2.695,2.695,3.593,6.288,1.796,9.881c-1.796,3.593-4.491,5.389-8.084,5.389l0,0H215.477
			c-4.491,0-8.982-3.593-8.982-8.982V82.312c0-3.593,1.797-7.186,5.389-8.084c3.593-1.796,7.186-0.898,9.881,1.796l39.523,39.523
			c48.505-47.607,91.621-49.404,94.316-49.404c19.761-1.796,38.625,0,57.488,4.491v-15.27H16.965V450.593z"/>
	</g>
</g>
</svg>