<?xml version="1.0" encoding="iso-8859-1"?>
<!-- Uploaded to: SVG Repo, www.svgrepo.com, Generator: SVG Repo Mixer Tools -->
<svg height="800px" width="800px" version="1.1" id="Layer_1" xmlns="http://www.w3.org/2000/svg" xmlns:xlink="http://www.w3.org/1999/xlink" 
	 viewBox="0 0 460 460" xml:space="preserve">
<g id="XMLID_978_">
	<g id="Printer_1_">
		<path id="XMLID_1663_" style="fill:#9CA09E;" d="M460,210v80v80c0,22.091-17.909,40-40,40H40c-22.091,0-40-17.909-40-40v-80v-80
			c0-22.091,17.909-40,40-40h380C442.091,170,460,187.909,460,210z"/>
		<path id="XMLID_238_" style="fill:#D2D6D5;" d="M460,210v80H0v-80c0-22.091,17.909-40,40-40h380C442.091,170,460,187.909,460,210z
			"/>
		<path id="XMLID_1464_" style="fill:#3C3B42;" d="M380,240H80c-11.046,0-20-8.954-20-20v-50h340v50
			C400,231.046,391.046,240,380,240z"/>
		<path id="XMLID_1463_" style="fill:#66646D;" d="M380,145v65c0,5.523-4.477,10-10,10H90c-5.523,0-10-4.477-10-10v-65
			c0-2.761,2.239-5,5-5h290C377.761,140,380,142.239,380,145z"/>
		<path id="XMLID_1471_" style="fill:#3C3B42;" d="M400,360v50H60v-50c0-11.046,8.954-20,20-20h300C391.046,340,400,348.954,400,360
			z"/>
		<path id="XMLID_1477_" style="fill:#66646D;" d="M375,440H85c-2.761,0-5-2.239-5-5v-65c0-5.523,4.477-10,10-10h280
			c5.523,0,10,4.477,10,10v65C380,437.761,377.761,440,375,440z"/>
	</g>
	<g id="Control_panel_2_">
		<path id="XMLID_1468_" style="fill:#C8DD7F;" d="M410,310L410,310c0-5.523,4.477-10,10-10l0,0c5.523,0,10,4.477,10,10l0,0
			c0,5.523-4.477,10-10,10l0,0C414.477,320,410,315.523,410,310z"/>
		<path id="XMLID_1469_" style="fill:#C8DD7F;" d="M370,310L370,310c0-5.523,4.477-10,10-10l0,0c5.523,0,10,4.477,10,10l0,0
			c0,5.523-4.477,10-10,10l0,0C374.477,320,370,315.523,370,310z"/>
		<path id="XMLID_1466_" style="fill:#9CA09E;" d="M410,270L410,270c0-5.523,4.477-10,10-10l0,0c5.523,0,10,4.477,10,10l0,0
			c0,5.523-4.477,10-10,10l0,0C414.477,280,410,275.523,410,270z"/>
	</g>
	<g id="Sheet_bottom_1_">
		<path id="XMLID_1476_" style="fill:#E0E0E0;" d="M370,455c0,2.761-2.239,5-5,5H95c-2.761,0-5-2.239-5-5v-95h280V455z"/>
		<path id="XMLID_1475_" style="fill:#C3C9C7;" d="M370,380H90v-20h280V380z"/>
	</g>
	<g id="Sheet_top_1_">
		<path id="XMLID_1248_" style="fill:#F2F2F2;" d="M90,220V28c0-15.464,12.536-28,28-28h186.907c4.641,0,9.092,1.844,12.374,5.126
			l47.593,47.593C368.156,56,370,60.452,370,65.093V220H90z"/>
		<path id="XMLID_236_" style="fill:#E0E0E0;" d="M314,84h56v136H90V28c0-15.464,12.536-28,28-28h168v56
			C286,71.464,298.536,84,314,84z"/>
		<path id="XMLID_2344_" style="fill:#AAAFAD;" d="M314,84h56v21l-49.209-12.302C316.8,91.7,314,88.114,314,84z"/>
		<g id="Cloud_sign">
			<path id="XMLID_1457_" style="fill:#73A09C;" d="M170.537,104.319h118.927c20.899,0,37.84,16.942,37.84,37.84l0,0
				c0,20.899-16.942,37.84-37.84,37.84H170.537c-20.899,0-37.84-16.942-37.84-37.84l0,0
				C132.696,121.261,149.638,104.319,170.537,104.319z"/>
			<path id="XMLID_1458_" style="fill:#90BFBB;" d="M154.319,101.704c0-19.406,15.732-35.137,35.137-35.137
				s35.137,15.732,35.137,35.137s-15.732,35.137-35.137,35.137S154.319,121.109,154.319,101.704z"/>
			<path id="XMLID_1461_" style="fill:#B4DBD5;" d="M187.975,144.863c0-19.406,15.732-35.137,35.137-35.137
				s35.137,15.732,35.137,35.137S242.518,180,223.112,180S187.975,164.268,187.975,144.863z"/>
			<path id="XMLID_1460_" style="fill:#B4DBD5;" d="M186.754,101.704c0-32.841,26.623-59.463,59.463-59.463
				s59.463,26.623,59.463,59.463s-26.623,59.463-59.463,59.463S186.754,134.544,186.754,101.704z"/>
		</g>
		<path id="XMLID_493_" style="fill:#F2F2F2;" d="M317.281,5.126l47.593,47.593C368.156,56,370,60.452,370,65.093V84h-56
			c-15.464,0-28-12.536-28-28V0h18.907C309.548,0,314,1.844,317.281,5.126z"/>
	</g>
</g>
</svg>