<?xml version="1.0" encoding="iso-8859-1"?>
<!-- Uploaded to: SVG Repo, www.svgrepo.com, Generator: SVG Repo Mixer Tools -->
<svg height="800px" width="800px" version="1.1" id="Layer_1" xmlns="http://www.w3.org/2000/svg" xmlns:xlink="http://www.w3.org/1999/xlink" 
	 viewBox="0 0 392.598 392.598" xml:space="preserve">
<g>
	<path style="fill:#194F82;" d="M382.488,286.384c-3.62-3.62-9.438-4.267-13.77-1.422c-30.19,20.105-65.552,30.707-102.077,30.707
		c-45.64,0-88.76-16.485-122.634-46.61l23.725-23.725c7.37-8.21,1.487-18.166-7.758-18.618H40.96
		c-6.012,0-10.925,4.848-10.925,10.925v118.95c0.517,10.279,12.024,14.222,18.618,7.758l24.76-24.76
		c37.947,34.263,86.626,53.01,138.085,53.01c55.143,0,125.285-23.014,172.154-92.444
		C386.69,295.822,386.108,290.069,382.488,286.384z M211.692,370.747c-49.325,0-95.741-19.265-130.586-54.109
		c-4.073-4.073-11.378-4.073-15.451,0L51.95,330.343v-81.842h81.778l-13.059,13.059c-4.202,4.59-4.461,10.99,0,15.451
		c39.046,39.047,90.893,60.509,146.036,60.509c21.85,0,43.378-3.426,63.806-10.02C297.219,355.426,255.651,370.747,211.692,370.747z
		"/>
	<path style="fill:#194F82;" d="M248.605,123.475L224.88,147.2c-7.37,8.21-1.487,18.166,7.758,18.618h119.014
		c6.012,0,10.925-4.848,10.925-10.925V35.943c-0.517-10.279-12.024-14.222-18.618-7.758l-24.76,24.76
		C281.122,18.683,232.508,0,180.985,0C125.841,0,55.829,23.014,8.831,92.444c-2.909,4.331-2.327,10.02,1.422,13.77
		c3.62,3.62,9.438,4.267,13.77,1.422C54.213,87.531,89.575,76.929,126.1,76.929C171.611,76.865,214.795,93.349,248.605,123.475z
		 M180.92,21.786c49.325,0,95.741,19.265,130.586,54.109c4.073,4.073,11.378,4.073,15.451,0l13.705-13.705v81.778h-81.778
		l13.059-13.059c4.202-4.59,4.461-10.99,0-15.451c-39.046-39.046-90.893-60.509-146.036-60.509c-21.851,0-43.378,3.426-63.806,10.02
		C95.393,37.107,136.96,21.786,180.92,21.786z"/>
</g>
<path style="fill:#FFC10D;" d="M340.661,62.255L326.956,75.96c-4.073,4.073-11.378,4.073-15.451,0
	c-34.844-34.844-81.261-54.109-130.586-54.109c-43.96,0-85.592,15.192-118.82,43.248c20.428-6.659,41.891-10.02,63.806-10.02
	c55.143,0,107.055,21.463,146.036,60.509c4.461,4.396,4.202,10.796,0,15.451l-13.059,12.994h81.778L340.661,62.255L340.661,62.255z"
	/>
<path style="fill:#56ACE0;" d="M81.041,316.638c34.844,34.844,81.261,54.109,130.586,54.109c43.96,0,85.592-15.192,118.82-43.249
	c-20.428,6.659-41.891,10.02-63.806,10.02c-55.143,0-107.055-21.463-146.036-60.509c-4.461-4.396-4.202-10.796,0-15.451
	l13.059-13.059H51.95v81.778l13.705-13.705C69.728,312.566,76.968,312.566,81.041,316.638z"/>
</svg>